<svg xmlns="http://www.w3.org/2000/svg" viewBox="0 0 24 24" role="img" aria-label="GitHub">
  <path fill="#ffffff" d="M12 2c-5.52 0-10 4.58-10 10.23 0 4.52 2.86 8.35 6.84 9.7.5.1.68-.22.68-.49 0-.24-.01-1.05-.01-1.9-2.78.62-3.36-1.2-3.36-1.2-.45-1.2-1.11-1.52-1.11-1.52-.9-.64.07-.63.07-.63 1 .07 1.52 1.05 1.52 1.05.9 1.56 2.36 1.11 2.94.85.09-.66.35-1.11.64-1.36-2.22-.26-4.56-1.15-4.56-5.12 0-1.13.39-2.06 1.03-2.79-.1-.26-.45-1.33.1-2.77 0 0 .85-.28 2.8 1.06.8-.23 1.65-.35 2.5-.35s1.7.12 2.5.35c1.95-1.34 2.8-1.06 2.8-1.06.55 1.44.2 2.51.1 2.77.64.73 1.03 1.66 1.03 2.79 0 3.98-2.35 4.86-4.58 5.12.36.32.68.94.68 1.9 0 1.37-.01 2.48-.01 2.82 0 .27.18.6.69.49 3.97-1.35 6.83-5.18 6.83-9.7C22 6.58 17.52 2 12 2z"/>
</svg>
