<svg xmlns="http://www.w3.org/2000/svg" viewBox="-1 -1 26 26" role="img" aria-label="WhatsApp">
  <path fill="#ffffff" d="M12 2C6.48 2 2 6.32 2 11.65c0 2.07.7 3.98 1.9 5.54L3 22l4.96-1.6c1.28.7 2.77 1.1 4.38 1.1 5.52 0 10-4.32 10-9.65C22.34 6.32 17.86 2 12 2zm0 17.9c-1.48 0-2.85-.4-4.02-1.1l-.29-.17-2.95.96.97-2.8-.19-.3c-1.09-1.53-1.67-3.33-1.67-5.2C3.85 7.32 7.47 3.8 12 3.8c4.53 0 8.15 3.52 8.15 7.85s-3.62 7.85-8.15 7.85zm4.52-5.71c-.24-.12-1.4-.68-1.62-.76-.22-.08-.38-.12-.54.12-.16.24-.62.76-.76.92-.14.16-.28.18-.52.06-.24-.12-1.02-.36-1.95-1.14-.72-.6-1.2-1.34-1.34-1.58-.14-.24-.01-.37.1-.49.1-.1.24-.28.36-.42.12-.14.16-.24.24-.4.08-.16.04-.3-.02-.42-.06-.12-.54-1.28-.74-1.76-.2-.48-.4-.42-.54-.43l-.46-.01c-.16 0-.42.06-.64.3-.22.24-.84.82-.84 2 0 1.18.86 2.32.98 2.48.12.16 1.7 2.54 4.12 3.56.58.24 1.04.38 1.4.48.59.16 1.12.14 1.54.09.47-.06 1.4-.56 1.6-1.1.2-.54.2-1 .14-1.1-.06-.1-.22-.16-.46-.28z"/>
</svg>
